<svg width="69" height="32" viewBox="0 0 69 32" fill="none" xmlns="http://www.w3.org/2000/svg">
<path fill-rule="evenodd" clip-rule="evenodd" d="M16.7327 0H20.6068V24.2892H16.7327V0ZM25.3714 8.86746H29.2456V24.2891H25.3714V8.86746ZM24.8225 3.63051C24.8225 3.00936 25.0485 2.47389 25.5005 2.02409C25.974 1.55287 26.5659 1.31726 27.2762 1.31726C27.9865 1.31726 28.5784 1.54216 29.0519 1.99196C29.5469 2.42034 29.7944 2.96652 29.7944 3.63051C29.7944 4.2945 29.5469 4.8514 29.0519 5.3012C28.5784 5.72958 27.9865 5.94377 27.2762 5.94377C26.5659 5.94377 25.974 5.71887 25.5005 5.26907C25.0485 4.79785 24.8225 4.25167 24.8225 3.63051ZM10.1375 12.0803C10.7401 12.3588 11.1921 12.7122 11.4934 13.1406L14.1408 10.8273C13.5166 10.0776 12.6664 9.48862 11.5903 9.06024C10.5356 8.63186 9.43795 8.41767 8.29722 8.41767C7.15648 8.41767 6.08032 8.61044 5.06873 8.99598C4.07866 9.38153 3.20697 9.92771 2.45365 10.6345C1.70034 11.3414 1.09769 12.1981 0.645698 13.2048C0.215233 14.2115 0 15.336 0 16.5783C0 17.8635 0.215233 19.0094 0.645698 20.0161C1.09769 21.0228 1.70034 21.8795 2.45365 22.5863C3.22849 23.2932 4.12171 23.8286 5.1333 24.1928C6.16641 24.5569 7.25334 24.739 8.39407 24.739C9.55633 24.739 10.6325 24.5569 11.6226 24.1928C12.6342 23.8072 13.4628 23.2718 14.1085 22.5863L11.6871 20.1446C11.3212 20.5944 10.837 20.9371 10.2343 21.1727C9.63166 21.4083 9.02901 21.5261 8.42636 21.5261C7.69457 21.5261 7.04887 21.3869 6.48926 21.1084C5.95118 20.8086 5.49919 20.423 5.1333 19.9518C4.7674 19.4806 4.4876 18.9558 4.29389 18.3775C4.1217 17.7778 4.03561 17.178 4.03561 16.5783C4.03561 15.9786 4.1217 15.3896 4.29389 14.8112C4.46608 14.2115 4.72436 13.676 5.06873 13.2048C5.43462 12.7336 5.88661 12.3588 6.42469 12.0803C6.96277 11.7805 7.58695 11.6305 8.29722 11.6305C8.92139 11.6305 9.53481 11.7805 10.1375 12.0803ZM68.2667 16.544C68.2667 21.1704 65.0116 24.7673 60.0927 24.7673C56.7169 24.7673 54.6601 22.0295 52.7851 19.5337L52.785 19.5337C52.2819 18.864 51.7919 18.2117 51.293 17.6345C50.647 18.3108 50.0434 19.1058 49.4296 19.9141C47.6481 22.2601 45.781 24.719 42.5418 24.719C40.7998 24.719 39.1806 24.1578 37.8076 22.3613V32H33.9455V8.88045H37.8076V10.994C39.2802 9.04703 40.9339 8.51399 42.3483 8.51399C46.3001 8.51399 48.7457 12.1743 50.8779 15.3656C51.0175 15.5745 51.1558 15.7814 51.293 15.9852C51.813 15.3561 52.3162 14.6406 52.8321 13.907L52.8321 13.9069C54.6648 11.3007 56.6583 8.46566 60.141 8.46566C65.0035 8.46566 68.2667 11.812 68.2667 16.544ZM64.4488 16.689C64.4488 14.4169 62.4068 11.9991 60.0443 11.9991C57.7275 11.9991 55.7784 14.1959 54.2188 15.9538L54.2185 15.9542C53.9743 16.2294 53.7397 16.4938 53.5148 16.7373C55.1945 18.6742 57.4701 21.2339 60.1894 21.2339C62.4837 21.2339 64.4488 18.8926 64.4488 16.689ZM49.0229 16.7373C48.85 16.5501 48.6716 16.3531 48.4879 16.1502C46.8449 14.336 44.7723 12.0474 42.3483 12.0474C40.1175 12.0474 38.0889 14.575 38.0889 16.689C38.0889 18.9998 40.1426 21.1856 42.4934 21.1856C45.098 21.1856 47.4335 18.5903 49.0229 16.7373Z" fill="white"/>
</svg>
